<svg width="751" height="186" viewBox="0 0 751 186" fill="none" xmlns="http://www.w3.org/2000/svg">
<path fill-rule="evenodd" clip-rule="evenodd" d="M185.821 92.5332C185.821 143.638 144.393 185.066 93.2879 185.066C42.1832 185.066 0.754627 143.638 0.754632 92.5332C0.754621 41.4285 42.1832 -5.83336e-05 93.2879 -6.91247e-05C144.393 -6.4657e-05 185.821 41.4285 185.821 92.5332ZM142.5 47.8845L64.8099 47.8844C53.3594 47.8845 44.0768 57.167 44.0768 68.6176C44.0768 79.7922 53.1357 88.851 64.3103 88.851L141.864 88.851C142.215 88.851 142.5 88.5665 142.5 88.2155L142.5 47.8845ZM121.766 96.2158L44.0767 96.2157L44.0767 136.547C44.0767 136.898 44.3612 137.182 44.7123 137.182L122.266 137.182C133.441 137.182 142.499 128.124 142.499 116.949C142.499 105.498 133.217 96.2158 121.766 96.2158Z" fill="white"/>
<path d="M257.123 109.741C250.81 109.741 244.76 108.915 238.973 107.261C233.186 105.533 228.527 103.315 224.995 100.61L231.195 86.8565C234.577 89.2615 238.56 91.2531 243.145 92.8313C247.804 94.3344 252.501 95.086 257.236 95.086C260.844 95.086 263.737 94.7478 265.916 94.0714C268.171 93.3199 269.825 92.3053 270.877 91.0276C271.929 89.75 272.455 88.2845 272.455 86.6311C272.455 84.5267 271.628 82.8733 269.975 81.6708C268.321 80.3932 266.142 79.3786 263.436 78.6271C260.731 77.8003 257.725 77.0488 254.418 76.3724C251.186 75.6209 247.917 74.719 244.61 73.6668C241.378 72.6147 238.41 71.2619 235.704 69.6085C232.999 67.955 230.782 65.7755 229.053 63.07C227.4 60.3644 226.573 56.9073 226.573 52.6986C226.573 48.1893 227.775 44.0933 230.18 40.4107C232.66 36.653 236.343 33.6844 241.228 31.5049C246.188 29.2502 252.389 28.1229 259.829 28.1229C264.789 28.1229 269.674 28.7241 274.484 29.9266C279.294 31.0539 283.54 32.7825 287.223 35.1123L281.586 48.9784C277.904 46.8741 274.221 45.3334 270.539 44.3564C266.856 43.3042 263.248 42.7781 259.716 42.7781C256.184 42.7781 253.29 43.1915 251.036 44.0182C248.781 44.8449 247.165 45.9346 246.188 47.2874C245.211 48.5651 244.723 50.0682 244.723 51.7967C244.723 53.8259 245.549 55.4793 247.203 56.7569C248.856 57.9594 251.036 58.9364 253.741 59.688C256.447 60.4395 259.416 61.1911 262.647 61.9426C265.954 62.6942 269.223 63.5585 272.455 64.5355C275.762 65.5125 278.768 66.8277 281.474 68.4811C284.179 70.1345 286.359 72.314 288.012 75.0196C289.741 77.7252 290.605 81.1447 290.605 85.2783C290.605 89.7124 289.365 93.7708 286.885 97.4534C284.405 101.136 280.684 104.105 275.724 106.359C270.839 108.614 264.639 109.741 257.123 109.741ZM335.325 46.8365C340.135 46.8365 344.419 47.8135 348.177 49.7675C352.01 51.6464 355.016 54.5775 357.195 58.5607C359.375 62.4687 360.465 67.5041 360.465 73.6668V108.388H342.878V76.3724C342.878 71.4873 341.789 67.8799 339.609 65.5501C337.505 63.2203 334.499 62.0554 330.591 62.0554C327.81 62.0554 325.292 62.6566 323.037 63.8591C320.858 64.9864 319.129 66.7526 317.852 69.1575C316.649 71.5625 316.048 74.6438 316.048 78.4016V108.388H298.462V24.7409H316.048V64.5355L312.102 59.4625C314.282 55.4042 317.401 52.2852 321.459 50.1057C325.518 47.9262 330.14 46.8365 335.325 46.8365ZM410.226 108.388V96.5515L409.098 93.9587V72.765C409.098 69.0072 407.933 66.0762 405.603 63.9718C403.349 61.8675 399.854 60.8153 395.119 60.8153C391.888 60.8153 388.694 61.3414 385.537 62.3936C382.456 63.3706 379.825 64.7234 377.646 66.4519L371.333 54.1641C374.64 51.8343 378.623 50.0306 383.282 48.7529C387.942 47.4753 392.677 46.8365 397.487 46.8365C406.731 46.8365 413.908 49.016 419.019 53.375C424.129 57.734 426.684 64.5355 426.684 73.7796V108.388H410.226ZM391.737 109.29C387.003 109.29 382.944 108.501 379.562 106.923C376.18 105.269 373.587 103.052 371.784 100.272C369.98 97.491 369.078 94.372 369.078 90.9149C369.078 87.3075 369.942 84.1509 371.671 81.4454C373.475 78.7398 376.293 76.6354 380.126 75.1323C383.959 73.5541 388.957 72.765 395.119 72.765H411.24V83.0236H397.036C392.902 83.0236 390.046 83.7 388.468 85.0528C386.965 86.4056 386.213 88.0966 386.213 90.1258C386.213 92.3804 387.078 94.1841 388.806 95.5369C390.61 96.8146 393.053 97.4534 396.134 97.4534C399.065 97.4534 401.695 96.777 404.025 95.4242C406.355 93.9962 408.046 91.9295 409.098 89.2239L411.804 97.3406C410.526 101.249 408.196 104.217 404.814 106.247C401.432 108.276 397.073 109.29 391.737 109.29ZM439.219 108.388V47.7383H456.016V64.8737L453.649 59.9135C455.452 55.6296 458.346 52.398 462.329 50.2185C466.312 47.9638 471.16 46.8365 476.872 46.8365V63.07C476.12 62.9948 475.444 62.9572 474.842 62.9572C474.241 62.8821 473.602 62.8445 472.926 62.8445C468.116 62.8445 464.208 64.2349 461.202 67.0156C458.271 69.7212 456.805 73.9674 456.805 79.7544V108.388H439.219ZM513.496 109.29C506.581 109.29 500.494 107.937 495.233 105.232C490.047 102.526 486.026 98.8437 483.17 94.1841C480.315 89.4494 478.887 84.0758 478.887 78.0634C478.887 71.9758 480.277 66.6023 483.058 61.9426C485.914 57.2079 489.784 53.5253 494.669 50.8949C499.554 48.1893 505.078 46.8365 511.241 46.8365C517.178 46.8365 522.514 48.1141 527.249 50.6694C532.059 53.1495 535.854 56.7569 538.635 61.4917C541.416 66.1513 542.806 71.7504 542.806 78.2889C542.806 78.9652 542.768 79.7544 542.693 80.6562C542.618 81.4829 542.543 82.2721 542.468 83.0236H493.204V72.765H533.224L526.46 75.8087C526.46 72.6522 525.821 69.9091 524.543 67.5793C523.266 65.2495 521.5 63.4457 519.245 62.1681C516.99 60.8153 514.36 60.1389 511.354 60.1389C508.347 60.1389 505.679 60.8153 503.35 62.1681C501.095 63.4457 499.329 65.287 498.051 67.692C496.774 70.0218 496.135 72.8025 496.135 76.0342V78.7398C496.135 82.0466 496.849 84.9776 498.277 87.5329C499.78 90.013 501.846 91.9295 504.477 93.2823C507.182 94.5599 510.339 95.1987 513.946 95.1987C517.178 95.1987 519.996 94.7102 522.401 93.7332C524.881 92.7562 527.136 91.2907 529.165 89.3366L538.522 99.4826C535.741 102.639 532.247 105.082 528.038 106.81C523.829 108.464 518.982 109.29 513.496 109.29ZM577.85 109.29C571.838 109.29 566.088 108.388 560.602 106.585C555.116 104.706 550.794 102.301 547.638 99.3698L551.809 90.5767C554.815 93.2071 558.648 95.3866 563.307 97.1152C567.967 98.8437 572.815 99.708 577.85 99.708C582.434 99.708 586.155 99.1819 589.01 98.1298C591.866 97.0776 593.971 95.6497 595.323 93.8459C596.676 91.9671 597.353 89.8627 597.353 87.5329C597.353 84.8273 596.451 82.6478 594.647 80.9944C592.918 79.341 590.626 78.0258 587.77 77.0488C584.99 75.9966 581.908 75.0948 578.526 74.3432C575.144 73.5917 571.725 72.7274 568.268 71.7504C564.886 70.6982 561.767 69.383 558.911 67.8047C556.13 66.2265 553.875 64.1221 552.147 61.4917C550.418 58.7861 549.554 55.329 549.554 51.1203C549.554 47.062 550.606 43.3418 552.711 39.9598C554.89 36.5027 558.197 33.7595 562.631 31.7303C567.14 29.626 572.852 28.5738 579.766 28.5738C584.351 28.5738 588.898 29.1751 593.407 30.3775C597.916 31.58 601.824 33.3086 605.131 35.5632L601.411 44.5818C598.029 42.3272 594.459 40.7114 590.701 39.7343C586.944 38.6822 583.299 38.1561 579.766 38.1561C575.332 38.1561 571.687 38.7197 568.831 39.8471C565.975 40.9744 563.871 42.4775 562.518 44.3564C561.241 46.2352 560.602 48.3396 560.602 50.6694C560.602 53.4501 561.466 55.6672 563.195 57.3206C564.998 58.974 567.291 60.2892 570.071 61.2662C572.927 62.2433 576.046 63.1451 579.428 63.9718C582.81 64.7234 586.192 65.5877 589.574 66.5647C593.031 67.5417 596.15 68.8193 598.931 70.3976C601.787 71.9758 604.079 74.0802 605.808 76.7106C607.536 79.341 608.4 82.723 608.4 86.8565C608.4 90.8397 607.311 94.5599 605.131 98.017C602.952 101.399 599.57 104.142 594.985 106.247C590.476 108.276 584.764 109.29 577.85 109.29ZM645.5 109.065C639.488 109.065 634.152 107.75 629.492 105.119C624.832 102.489 621.15 98.8813 618.444 94.2969C615.739 89.6373 614.386 84.3764 614.386 78.5143C614.386 72.5771 615.739 67.3162 618.444 62.7318C621.15 58.1473 624.832 54.5775 629.492 52.0222C634.152 49.3918 639.488 48.0765 645.5 48.0765C651.437 48.0765 656.736 49.3918 661.395 52.0222C666.13 54.5775 669.813 58.1473 672.443 62.7318C675.149 67.2411 676.501 72.5019 676.501 78.5143C676.501 84.4516 675.149 89.7124 672.443 94.2969C669.813 98.8813 666.13 102.489 661.395 105.119C656.736 107.75 651.437 109.065 645.5 109.065ZM645.5 99.5953C649.333 99.5953 652.752 98.731 655.759 97.0024C658.84 95.2739 661.245 92.8313 662.973 89.6748C664.702 86.4432 665.566 82.723 665.566 78.5143C665.566 74.2305 664.702 70.5479 662.973 67.4665C661.245 64.31 658.84 61.8675 655.759 60.1389C652.752 58.4104 649.333 57.5461 645.5 57.5461C641.667 57.5461 638.248 58.4104 635.241 60.1389C632.235 61.8675 629.83 64.31 628.026 67.4665C626.223 70.5479 625.321 74.2305 625.321 78.5143C625.321 82.723 626.223 86.4432 628.026 89.6748C629.83 92.8313 632.235 95.2739 635.241 97.0024C638.248 98.731 641.667 99.5953 645.5 99.5953ZM714.128 109.065C708.04 109.065 702.591 107.75 697.781 105.119C693.047 102.489 689.326 98.8813 686.621 94.2969C683.915 89.7124 682.563 84.4516 682.563 78.5143C682.563 72.5771 683.915 67.3162 686.621 62.7318C689.326 58.1473 693.047 54.5775 697.781 52.0222C702.591 49.3918 708.04 48.0765 714.128 48.0765C719.539 48.0765 724.349 49.1663 728.557 51.3458C732.841 53.4501 736.148 56.6066 738.478 60.8153L730.248 66.1137C728.294 63.1827 725.889 61.0408 723.033 59.688C720.253 58.26 717.247 57.5461 714.015 57.5461C710.107 57.5461 706.612 58.4104 703.531 60.1389C700.449 61.8675 698.007 64.31 696.203 67.4665C694.399 70.5479 693.498 74.2305 693.498 78.5143C693.498 82.7982 694.399 86.5183 696.203 89.6748C698.007 92.8313 700.449 95.2739 703.531 97.0024C706.612 98.731 710.107 99.5953 714.015 99.5953C717.247 99.5953 720.253 98.9189 723.033 97.5661C725.889 96.1382 728.294 93.9587 730.248 91.0276L738.478 96.2133C736.148 100.347 732.841 103.541 728.557 105.796C724.349 107.975 719.539 109.065 714.128 109.065Z" fill="white"/>
<path d="M235.029 158.922C233.265 158.922 231.706 158.557 230.354 157.828C229.002 157.099 227.941 156.08 227.17 154.77C226.409 153.45 226.029 151.902 226.029 150.128V135.645L228.881 135.629V149.89C228.881 150.967 229.06 151.908 229.419 152.71C229.789 153.503 230.275 154.163 230.877 154.691C231.479 155.219 232.14 155.615 232.858 155.879C233.587 156.133 234.31 156.26 235.029 156.26C235.758 156.26 236.486 156.128 237.215 155.864C237.944 155.599 238.604 155.209 239.196 154.691C239.798 154.163 240.279 153.497 240.638 152.695C240.997 151.892 241.177 150.957 241.177 149.89V135.629H244.029V150.128C244.029 151.892 243.643 153.434 242.872 154.754C242.111 156.075 241.055 157.099 239.703 157.828C238.351 158.557 236.793 158.922 235.029 158.922ZM248.465 158.446V135.629H251.286V146.341L261.268 135.629H264.818L254.455 146.705L265.626 158.446H261.981L251.286 147.291V158.446H248.465ZM273.881 158.446V135.629H276.701V158.446H273.881ZM293.64 158.446V149.874C293.64 149.061 293.566 148.279 293.418 147.529C293.281 146.779 293.033 146.108 292.674 145.517C292.325 144.915 291.85 144.439 291.247 144.091C290.656 143.742 289.906 143.568 288.998 143.568C288.29 143.568 287.645 143.689 287.064 143.932C286.494 144.165 286.003 144.524 285.591 145.01C285.179 145.496 284.857 146.108 284.624 146.848C284.402 147.577 284.292 148.438 284.292 149.43L282.438 148.86C282.438 147.202 282.733 145.781 283.325 144.598C283.927 143.404 284.767 142.49 285.844 141.857C286.932 141.212 288.211 140.89 289.679 140.89C290.788 140.89 291.733 141.064 292.515 141.413C293.297 141.761 293.946 142.226 294.464 142.807C294.982 143.378 295.388 144.022 295.684 144.74C295.98 145.448 296.186 146.172 296.302 146.911C296.429 147.64 296.492 148.332 296.492 148.987V158.446H293.64ZM281.439 158.446V141.334H283.975V145.913H284.292V158.446H281.439ZM307.175 158.922C305.58 158.922 304.212 158.526 303.071 157.733C301.931 156.93 301.048 155.848 300.425 154.485C299.813 153.122 299.506 151.585 299.506 149.874C299.506 148.163 299.813 146.626 300.425 145.263C301.048 143.901 301.931 142.828 303.071 142.047C304.212 141.254 305.575 140.858 307.159 140.858C308.776 140.858 310.133 141.249 311.232 142.031C312.33 142.813 313.159 143.885 313.719 145.247C314.29 146.61 314.575 148.152 314.575 149.874C314.575 151.575 314.29 153.112 313.719 154.485C313.159 155.848 312.33 156.93 311.232 157.733C310.133 158.526 308.781 158.922 307.175 158.922ZM307.524 156.339C308.675 156.339 309.621 156.064 310.36 155.515C311.099 154.955 311.644 154.189 311.992 153.217C312.351 152.235 312.531 151.121 312.531 149.874C312.531 148.607 312.351 147.492 311.992 146.531C311.644 145.559 311.105 144.804 310.376 144.265C309.647 143.716 308.723 143.441 307.603 143.441C306.441 143.441 305.48 143.726 304.719 144.297C303.969 144.867 303.409 145.638 303.04 146.61C302.681 147.582 302.501 148.67 302.501 149.874C302.501 151.089 302.686 152.188 303.056 153.17C303.425 154.142 303.98 154.913 304.719 155.483C305.469 156.054 306.404 156.339 307.524 156.339ZM312.531 158.446V145.85H312.214V135.629H315.05V158.446H312.531ZM319.806 138.307V135.392H322.627V138.307H319.806ZM319.806 158.446V141.334H322.627V158.446H319.806ZM332.008 158.446L325.797 141.334H328.649L333.45 154.849L338.235 141.334H341.103L334.892 158.446H332.008ZM344.286 138.307V135.392H347.106V138.307H344.286ZM344.286 158.446V141.334H347.106V158.446H344.286ZM358.579 158.922C356.984 158.922 355.616 158.526 354.475 157.733C353.334 156.93 352.452 155.848 351.829 154.485C351.216 153.122 350.91 151.585 350.91 149.874C350.91 148.163 351.216 146.626 351.829 145.263C352.452 143.901 353.334 142.828 354.475 142.047C355.616 141.254 356.978 140.858 358.563 140.858C360.179 140.858 361.536 141.249 362.635 142.031C363.734 142.813 364.563 143.885 365.123 145.247C365.693 146.61 365.978 148.152 365.978 149.874C365.978 151.575 365.693 153.112 365.123 154.485C364.563 155.848 363.734 156.93 362.635 157.733C361.536 158.526 360.184 158.922 358.579 158.922ZM358.927 156.339C360.079 156.339 361.024 156.064 361.764 155.515C362.503 154.955 363.047 154.189 363.396 153.217C363.755 152.235 363.934 151.121 363.934 149.874C363.934 148.607 363.755 147.492 363.396 146.531C363.047 145.559 362.508 144.804 361.779 144.265C361.05 143.716 360.126 143.441 359.006 143.441C357.845 143.441 356.883 143.726 356.123 144.297C355.373 144.867 354.813 145.638 354.443 146.61C354.084 147.582 353.904 148.67 353.904 149.874C353.904 151.089 354.089 152.188 354.459 153.17C354.829 154.142 355.383 154.913 356.123 155.483C356.873 156.054 357.808 156.339 358.927 156.339ZM363.934 158.446V145.85H363.617V135.629H366.454V158.446H363.934ZM377.389 158.89C376.291 158.89 375.345 158.716 374.553 158.367C373.771 158.018 373.122 157.554 372.604 156.973C372.087 156.392 371.68 155.747 371.384 155.04C371.088 154.332 370.877 153.608 370.75 152.869C370.634 152.129 370.576 151.438 370.576 150.793V141.334H373.428V149.906C373.428 150.709 373.502 151.485 373.65 152.235C373.798 152.985 374.046 153.661 374.395 154.263C374.754 154.865 375.229 155.341 375.821 155.689C376.423 156.038 377.173 156.212 378.071 156.212C378.779 156.212 379.423 156.091 380.004 155.848C380.585 155.605 381.081 155.246 381.493 154.77C381.905 154.284 382.222 153.672 382.444 152.932C382.666 152.193 382.777 151.332 382.777 150.349L384.631 150.92C384.631 152.568 384.33 153.989 383.727 155.182C383.136 156.376 382.296 157.295 381.208 157.939C380.131 158.573 378.858 158.89 377.389 158.89ZM383.094 158.446V153.867H382.777V141.334H385.613V158.446H383.094ZM394.914 158.922C393.636 158.922 392.563 158.689 391.697 158.224C390.842 157.749 390.192 157.126 389.748 156.355C389.315 155.584 389.099 154.739 389.099 153.82C389.099 152.922 389.268 152.145 389.606 151.49C389.954 150.825 390.44 150.276 391.063 149.842C391.687 149.399 392.431 149.05 393.298 148.797C394.111 148.575 395.019 148.385 396.023 148.226C397.037 148.057 398.062 147.904 399.097 147.767C400.132 147.629 401.099 147.497 401.996 147.371L400.982 147.957C401.014 146.436 400.708 145.311 400.063 144.582C399.43 143.853 398.331 143.489 396.768 143.489C395.732 143.489 394.824 143.726 394.042 144.202C393.271 144.666 392.727 145.427 392.41 146.483L389.732 145.675C390.144 144.175 390.942 142.997 392.125 142.142C393.308 141.286 394.866 140.858 396.799 140.858C398.352 140.858 399.683 141.138 400.792 141.698C401.912 142.247 402.715 143.082 403.201 144.202C403.444 144.73 403.597 145.305 403.66 145.929C403.724 146.541 403.755 147.186 403.755 147.862V158.446H401.252V154.342L401.838 154.723C401.194 156.107 400.291 157.152 399.129 157.86C397.977 158.568 396.572 158.922 394.914 158.922ZM395.342 156.561C396.356 156.561 397.232 156.381 397.972 156.022C398.722 155.652 399.324 155.172 399.778 154.58C400.232 153.978 400.528 153.323 400.666 152.615C400.824 152.087 400.908 151.501 400.919 150.857C400.94 150.202 400.951 149.7 400.951 149.351L401.933 149.779C401.014 149.906 400.111 150.027 399.224 150.143C398.336 150.26 397.497 150.386 396.704 150.524C395.912 150.651 395.199 150.804 394.565 150.983C394.1 151.131 393.662 151.321 393.25 151.554C392.849 151.786 392.521 152.087 392.268 152.457C392.025 152.816 391.903 153.265 391.903 153.804C391.903 154.268 392.019 154.712 392.252 155.135C392.495 155.557 392.864 155.901 393.361 156.165C393.868 156.429 394.528 156.561 395.342 156.561ZM408.192 158.446V135.154H411.012V158.446H408.192ZM430.208 158.922C428.591 158.922 427.134 158.647 425.834 158.098C424.546 157.548 423.479 156.767 422.634 155.753C421.799 154.728 421.255 153.518 421.002 152.124L423.917 151.665C424.287 153.101 425.053 154.226 426.215 155.04C427.387 155.842 428.766 156.244 430.35 156.244C431.375 156.244 432.299 156.085 433.123 155.768C433.958 155.441 434.618 154.976 435.104 154.374C435.59 153.772 435.833 153.059 435.833 152.235C435.833 151.728 435.743 151.295 435.563 150.936C435.394 150.566 435.156 150.254 434.85 150.001C434.554 149.737 434.216 149.515 433.836 149.335C433.456 149.156 433.06 149.008 432.648 148.892L426.833 147.165C426.199 146.974 425.586 146.737 424.995 146.452C424.403 146.156 423.875 145.791 423.41 145.358C422.945 144.915 422.576 144.386 422.301 143.774C422.026 143.151 421.889 142.416 421.889 141.571C421.889 140.219 422.238 139.068 422.935 138.117C423.642 137.156 424.598 136.422 425.803 135.915C427.007 135.408 428.364 135.159 429.875 135.17C431.406 135.181 432.774 135.455 433.979 135.994C435.193 136.522 436.197 137.283 436.989 138.276C437.792 139.269 438.331 140.457 438.605 141.841L435.611 142.364C435.452 141.434 435.098 140.636 434.549 139.971C434.01 139.295 433.334 138.777 432.521 138.418C431.708 138.048 430.815 137.858 429.843 137.848C428.914 137.837 428.074 137.985 427.324 138.291C426.574 138.598 425.977 139.026 425.533 139.575C425.09 140.114 424.868 140.737 424.868 141.445C424.868 142.142 425.068 142.707 425.47 143.14C425.871 143.563 426.362 143.901 426.943 144.154C427.535 144.397 428.111 144.598 428.671 144.756L433.012 146.008C433.509 146.145 434.079 146.335 434.723 146.578C435.378 146.821 436.012 147.165 436.625 147.608C437.237 148.041 437.744 148.622 438.146 149.351C438.547 150.07 438.748 150.978 438.748 152.077C438.748 153.175 438.526 154.152 438.083 155.008C437.649 155.864 437.042 156.582 436.26 157.163C435.479 157.733 434.57 158.166 433.535 158.462C432.5 158.768 431.391 158.922 430.208 158.922ZM454.257 158.446V149.874C454.257 149.061 454.183 148.279 454.035 147.529C453.897 146.779 453.649 146.108 453.29 145.517C452.941 144.915 452.466 144.439 451.864 144.091C451.272 143.742 450.522 143.568 449.614 143.568C448.906 143.568 448.262 143.689 447.681 143.932C447.11 144.165 446.619 144.524 446.207 145.01C445.795 145.496 445.473 146.108 445.241 146.848C445.019 147.577 444.908 148.438 444.908 149.43L443.054 148.86C443.054 147.202 443.35 145.781 443.941 144.598C444.544 143.404 445.383 142.49 446.461 141.857C447.549 141.212 448.827 140.89 450.295 140.89C451.404 140.89 452.35 141.064 453.132 141.413C453.913 141.761 454.563 142.226 455.081 142.807C455.598 143.378 456.005 144.022 456.301 144.74C456.596 145.448 456.802 146.172 456.919 146.911C457.045 147.64 457.109 148.332 457.109 148.987V158.446H454.257ZM442.056 158.446V135.629H444.591V148.226H444.908V158.446H442.056ZM466.093 158.922C464.814 158.922 463.742 158.689 462.876 158.224C462.02 157.749 461.371 157.126 460.927 156.355C460.494 155.584 460.277 154.739 460.277 153.82C460.277 152.922 460.446 152.145 460.784 151.49C461.133 150.825 461.619 150.276 462.242 149.842C462.865 149.399 463.61 149.05 464.476 148.797C465.29 148.575 466.198 148.385 467.202 148.226C468.216 148.057 469.24 147.904 470.276 147.767C471.311 147.629 472.277 147.497 473.175 147.371L472.161 147.957C472.193 146.436 471.887 145.311 471.242 144.582C470.608 143.853 469.51 143.489 467.946 143.489C466.911 143.489 466.003 143.726 465.221 144.202C464.45 144.666 463.906 145.427 463.589 146.483L460.911 145.675C461.323 144.175 462.121 142.997 463.304 142.142C464.487 141.286 466.045 140.858 467.978 140.858C469.531 140.858 470.862 141.138 471.971 141.698C473.091 142.247 473.894 143.082 474.379 144.202C474.622 144.73 474.776 145.305 474.839 145.929C474.902 146.541 474.934 147.186 474.934 147.862V158.446H472.431V154.342L473.017 154.723C472.372 156.107 471.469 157.152 470.307 157.86C469.156 158.568 467.751 158.922 466.093 158.922ZM466.52 156.561C467.534 156.561 468.411 156.381 469.151 156.022C469.901 155.652 470.503 155.172 470.957 154.58C471.411 153.978 471.707 153.323 471.844 152.615C472.003 152.087 472.087 151.501 472.098 150.857C472.119 150.202 472.13 149.7 472.13 149.351L473.112 149.779C472.193 149.906 471.29 150.027 470.402 150.143C469.515 150.26 468.675 150.386 467.883 150.524C467.091 150.651 466.378 150.804 465.744 150.983C465.279 151.131 464.841 151.321 464.429 151.554C464.027 151.786 463.7 152.087 463.446 152.457C463.203 152.816 463.082 153.265 463.082 153.804C463.082 154.268 463.198 154.712 463.431 155.135C463.674 155.557 464.043 155.901 464.54 156.165C465.047 156.429 465.707 156.561 466.52 156.561ZM479.054 158.446V141.334H481.573V145.469L481.161 144.93C481.362 144.402 481.621 143.916 481.938 143.473C482.265 143.029 482.629 142.665 483.031 142.379C483.475 142.02 483.976 141.746 484.536 141.555C485.096 141.365 485.666 141.254 486.247 141.223C486.828 141.181 487.372 141.217 487.879 141.334V143.98C487.288 143.821 486.638 143.779 485.931 143.853C485.223 143.927 484.568 144.186 483.966 144.629C483.416 145.02 482.989 145.496 482.682 146.055C482.387 146.615 482.181 147.223 482.064 147.878C481.948 148.522 481.89 149.182 481.89 149.858V158.446H479.054ZM497.982 158.922C496.302 158.922 494.834 158.552 493.577 157.812C492.33 157.062 491.358 156.022 490.661 154.691C489.964 153.349 489.615 151.786 489.615 150.001C489.615 148.131 489.959 146.515 490.645 145.152C491.332 143.779 492.288 142.723 493.513 141.983C494.749 141.233 496.196 140.858 497.855 140.858C499.577 140.858 501.04 141.254 502.244 142.047C503.459 142.839 504.367 143.969 504.969 145.438C505.582 146.906 505.846 148.654 505.762 150.682H502.909V149.668C502.878 147.566 502.45 145.997 501.626 144.962C500.802 143.916 499.577 143.394 497.95 143.394C496.207 143.394 494.881 143.953 493.973 145.073C493.064 146.193 492.61 147.798 492.61 149.89C492.61 151.908 493.064 153.471 493.973 154.58C494.881 155.689 496.175 156.244 497.855 156.244C498.985 156.244 499.968 155.985 500.802 155.467C501.637 154.95 502.291 154.205 502.767 153.233L505.476 154.168C504.811 155.679 503.807 156.851 502.466 157.686C501.135 158.51 499.64 158.922 497.982 158.922ZM491.659 150.682V148.416H504.304V150.682H491.659ZM521.474 158.446V149.874C521.474 149.061 521.4 148.279 521.252 147.529C521.115 146.779 520.867 146.108 520.508 145.517C520.159 144.915 519.684 144.439 519.082 144.091C518.49 143.742 517.74 143.568 516.832 143.568C516.124 143.568 515.479 143.689 514.898 143.932C514.328 144.165 513.837 144.524 513.425 145.01C513.013 145.496 512.691 146.108 512.458 146.848C512.236 147.577 512.126 148.438 512.126 149.43L510.272 148.86C510.272 147.202 510.567 145.781 511.159 144.598C511.761 143.404 512.601 142.49 513.678 141.857C514.766 141.212 516.045 140.89 517.513 140.89C518.622 140.89 519.567 141.064 520.349 141.413C521.131 141.761 521.78 142.226 522.298 142.807C522.816 143.378 523.222 144.022 523.518 144.74C523.814 145.448 524.02 146.172 524.136 146.911C524.263 147.64 524.326 148.332 524.326 148.987V158.446H521.474ZM509.273 158.446V135.629H511.809V148.226H512.126V158.446H509.273ZM535.734 158.922C534.034 158.922 532.565 158.536 531.329 157.765C530.104 156.994 529.159 155.927 528.493 154.564C527.828 153.202 527.495 151.638 527.495 149.874C527.495 148.078 527.833 146.504 528.509 145.152C529.185 143.8 530.141 142.749 531.377 141.999C532.613 141.239 534.065 140.858 535.734 140.858C537.446 140.858 538.919 141.244 540.155 142.015C541.391 142.776 542.336 143.837 542.991 145.2C543.657 146.552 543.99 148.11 543.99 149.874C543.99 151.659 543.657 153.233 542.991 154.596C542.326 155.948 541.375 157.01 540.139 157.781C538.903 158.541 537.435 158.922 535.734 158.922ZM535.734 156.244C537.509 156.244 538.829 155.652 539.696 154.469C540.562 153.286 540.995 151.754 540.995 149.874C540.995 147.941 540.557 146.404 539.68 145.263C538.803 144.112 537.488 143.536 535.734 143.536C534.541 143.536 533.558 143.805 532.787 144.344C532.016 144.883 531.44 145.628 531.06 146.578C530.68 147.529 530.49 148.628 530.49 149.874C530.49 151.797 530.933 153.339 531.821 154.501C532.708 155.663 534.013 156.244 535.734 156.244ZM547.795 158.446V135.154H550.616V158.446H547.795ZM562.088 158.922C560.493 158.922 559.125 158.526 557.984 157.733C556.843 156.93 555.961 155.848 555.338 154.485C554.725 153.122 554.419 151.585 554.419 149.874C554.419 148.163 554.725 146.626 555.338 145.263C555.961 143.901 556.843 142.828 557.984 142.047C559.125 141.254 560.488 140.858 562.072 140.858C563.688 140.858 565.046 141.249 566.144 142.031C567.243 142.813 568.072 143.885 568.632 145.247C569.203 146.61 569.488 148.152 569.488 149.874C569.488 151.575 569.203 153.112 568.632 154.485C568.072 155.848 567.243 156.93 566.144 157.733C565.046 158.526 563.694 158.922 562.088 158.922ZM562.437 156.339C563.588 156.339 564.534 156.064 565.273 155.515C566.012 154.955 566.556 154.189 566.905 153.217C567.264 152.235 567.444 151.121 567.444 149.874C567.444 148.607 567.264 147.492 566.905 146.531C566.556 145.559 566.018 144.804 565.289 144.265C564.56 143.716 563.636 143.441 562.516 143.441C561.354 143.441 560.393 143.726 559.632 144.297C558.882 144.867 558.322 145.638 557.953 146.61C557.593 147.582 557.414 148.67 557.414 149.874C557.414 151.089 557.599 152.188 557.968 153.17C558.338 154.142 558.893 154.913 559.632 155.483C560.382 156.054 561.317 156.339 562.437 156.339ZM567.444 158.446V145.85H567.127V135.629H569.963V158.446H567.444ZM581.818 158.922C580.138 158.922 578.67 158.552 577.413 157.812C576.166 157.062 575.195 156.022 574.497 154.691C573.8 153.349 573.452 151.786 573.452 150.001C573.452 148.131 573.795 146.515 574.482 145.152C575.168 143.779 576.124 142.723 577.35 141.983C578.585 141.233 580.033 140.858 581.691 140.858C583.413 140.858 584.876 141.254 586.08 142.047C587.295 142.839 588.203 143.969 588.806 145.438C589.418 146.906 589.682 148.654 589.598 150.682H586.746V149.668C586.714 147.566 586.286 145.997 585.462 144.962C584.638 143.916 583.413 143.394 581.786 143.394C580.043 143.394 578.718 143.953 577.809 145.073C576.901 146.193 576.446 147.798 576.446 149.89C576.446 151.908 576.901 153.471 577.809 154.58C578.718 155.689 580.012 156.244 581.691 156.244C582.821 156.244 583.804 155.985 584.638 155.467C585.473 154.95 586.128 154.205 586.603 153.233L589.313 154.168C588.647 155.679 587.644 156.851 586.302 157.686C584.971 158.51 583.476 158.922 581.818 158.922ZM575.496 150.682V148.416H588.14V150.682H575.496ZM593.126 158.446V141.334H595.645V145.469L595.233 144.93C595.434 144.402 595.692 143.916 596.009 143.473C596.337 143.029 596.701 142.665 597.103 142.379C597.546 142.02 598.048 141.746 598.608 141.555C599.168 141.365 599.738 141.254 600.319 141.223C600.9 141.181 601.444 141.217 601.951 141.334V143.98C601.36 143.821 600.71 143.779 600.002 143.853C599.295 143.927 598.64 144.186 598.037 144.629C597.488 145.02 597.06 145.496 596.754 146.055C596.458 146.615 596.252 147.223 596.136 147.878C596.02 148.522 595.962 149.182 595.962 149.858V158.446H593.126ZM610.793 158.906C608.754 158.906 607.08 158.462 605.77 157.575C604.471 156.677 603.674 155.425 603.378 153.82L606.262 153.36C606.494 154.29 607.027 155.029 607.862 155.578C608.696 156.117 609.732 156.386 610.968 156.386C612.14 156.386 613.059 156.143 613.725 155.658C614.39 155.172 614.723 154.511 614.723 153.677C614.723 153.191 614.612 152.8 614.39 152.504C614.168 152.198 613.709 151.913 613.012 151.649C612.325 151.385 611.284 151.068 609.89 150.698C608.379 150.297 607.191 149.879 606.325 149.446C605.459 149.013 604.841 148.511 604.471 147.941C604.101 147.371 603.916 146.679 603.916 145.865C603.916 144.862 604.191 143.985 604.74 143.235C605.29 142.475 606.056 141.888 607.038 141.476C608.031 141.064 609.182 140.858 610.492 140.858C611.791 140.858 612.953 141.064 613.978 141.476C615.003 141.888 615.827 142.475 616.45 143.235C617.084 143.985 617.459 144.862 617.575 145.865L614.691 146.388C614.554 145.469 614.11 144.746 613.36 144.217C612.621 143.689 611.665 143.409 610.492 143.378C609.383 143.335 608.48 143.531 607.783 143.964C607.096 144.397 606.753 144.983 606.753 145.723C606.753 146.135 606.879 146.489 607.133 146.784C607.397 147.08 607.878 147.36 608.575 147.624C609.283 147.888 610.307 148.189 611.649 148.527C613.159 148.908 614.348 149.325 615.214 149.779C616.091 150.223 616.714 150.751 617.084 151.364C617.453 151.966 617.638 152.71 617.638 153.598C617.638 155.246 617.031 156.545 615.816 157.496C614.601 158.436 612.927 158.906 610.793 158.906ZM635.574 158.922C633.958 158.922 632.5 158.647 631.201 158.098C629.912 157.548 628.845 156.767 628 155.753C627.165 154.728 626.621 153.518 626.368 152.124L629.283 151.665C629.653 153.101 630.419 154.226 631.581 155.04C632.753 155.842 634.132 156.244 635.716 156.244C636.741 156.244 637.665 156.085 638.489 155.768C639.324 155.441 639.984 154.976 640.47 154.374C640.956 153.772 641.199 153.059 641.199 152.235C641.199 151.728 641.109 151.295 640.929 150.936C640.76 150.566 640.523 150.254 640.216 150.001C639.921 149.737 639.583 149.515 639.202 149.335C638.822 149.156 638.426 149.008 638.014 148.892L632.199 147.165C631.565 146.974 630.952 146.737 630.361 146.452C629.769 146.156 629.241 145.791 628.776 145.358C628.312 144.915 627.942 144.386 627.667 143.774C627.393 143.151 627.255 142.416 627.255 141.571C627.255 140.219 627.604 139.068 628.301 138.117C629.009 137.156 629.965 136.422 631.169 135.915C632.373 135.408 633.731 135.159 635.241 135.17C636.773 135.181 638.141 135.455 639.345 135.994C640.56 136.522 641.563 137.283 642.356 138.276C643.158 139.269 643.697 140.457 643.972 141.841L640.977 142.364C640.819 141.434 640.465 140.636 639.915 139.971C639.377 139.295 638.701 138.777 637.887 138.418C637.074 138.048 636.181 137.858 635.209 137.848C634.28 137.837 633.44 137.985 632.69 138.291C631.94 138.598 631.343 139.026 630.9 139.575C630.456 140.114 630.234 140.737 630.234 141.445C630.234 142.142 630.435 142.707 630.836 143.14C631.238 143.563 631.729 143.901 632.31 144.154C632.901 144.397 633.477 144.598 634.037 144.756L638.378 146.008C638.875 146.145 639.445 146.335 640.09 146.578C640.745 146.821 641.378 147.165 641.991 147.608C642.604 148.041 643.111 148.622 643.512 149.351C643.914 150.07 644.114 150.978 644.114 152.077C644.114 153.175 643.892 154.152 643.449 155.008C643.016 155.864 642.408 156.582 641.627 157.163C640.845 157.733 639.936 158.166 638.901 158.462C637.866 158.768 636.757 158.922 635.574 158.922ZM654.727 158.922C653.026 158.922 651.558 158.536 650.322 157.765C649.096 156.994 648.151 155.927 647.486 154.564C646.82 153.202 646.487 151.638 646.487 149.874C646.487 148.078 646.825 146.504 647.501 145.152C648.177 143.8 649.133 142.749 650.369 141.999C651.605 141.239 653.058 140.858 654.727 140.858C656.438 140.858 657.912 141.244 659.147 142.015C660.383 142.776 661.329 143.837 661.984 145.2C662.649 146.552 662.982 148.11 662.982 149.874C662.982 151.659 662.649 153.233 661.984 154.596C661.318 155.948 660.368 157.01 659.132 157.781C657.896 158.541 656.427 158.922 654.727 158.922ZM654.727 156.244C656.501 156.244 657.822 155.652 658.688 154.469C659.554 153.286 659.987 151.754 659.987 149.874C659.987 147.941 659.549 146.404 658.672 145.263C657.795 144.112 656.48 143.536 654.727 143.536C653.533 143.536 652.551 143.805 651.78 144.344C651.008 144.883 650.433 145.628 650.052 146.578C649.672 147.529 649.482 148.628 649.482 149.874C649.482 151.797 649.926 153.339 650.813 154.501C651.7 155.663 653.005 156.244 654.727 156.244ZM673.68 158.922C671.948 158.922 670.474 158.536 669.259 157.765C668.055 156.983 667.136 155.911 666.502 154.548C665.869 153.186 665.541 151.633 665.52 149.89C665.541 148.105 665.874 146.536 666.518 145.184C667.173 143.821 668.108 142.76 669.323 141.999C670.538 141.239 672.001 140.858 673.712 140.858C675.518 140.858 677.071 141.302 678.37 142.189C679.68 143.077 680.557 144.291 681.001 145.834L678.212 146.673C677.853 145.68 677.266 144.909 676.453 144.36C675.65 143.811 674.726 143.536 673.68 143.536C672.508 143.536 671.541 143.811 670.78 144.36C670.02 144.899 669.455 145.649 669.085 146.61C668.715 147.561 668.525 148.654 668.515 149.89C668.536 151.791 668.974 153.328 669.83 154.501C670.696 155.663 671.979 156.244 673.68 156.244C674.8 156.244 675.729 155.99 676.469 155.483C677.208 154.966 677.768 154.221 678.148 153.249L681.001 153.994C680.409 155.589 679.485 156.809 678.228 157.654C676.971 158.499 675.455 158.922 673.68 158.922ZM684.087 138.307V135.392H686.907V138.307H684.087ZM684.087 158.446V141.334H686.907V158.446H684.087ZM699.077 158.922C697.398 158.922 695.929 158.552 694.672 157.812C693.426 157.062 692.454 156.022 691.757 154.691C691.06 153.349 690.711 151.786 690.711 150.001C690.711 148.131 691.054 146.515 691.741 145.152C692.428 143.779 693.384 142.723 694.609 141.983C695.845 141.233 697.292 140.858 698.95 140.858C700.672 140.858 702.135 141.254 703.34 142.047C704.554 142.839 705.463 143.969 706.065 145.438C706.678 146.906 706.942 148.654 706.857 150.682H704.005V149.668C703.973 147.566 703.545 145.997 702.722 144.962C701.898 143.916 700.672 143.394 699.046 143.394C697.303 143.394 695.977 143.953 695.068 145.073C694.16 146.193 693.706 147.798 693.706 149.89C693.706 151.908 694.16 153.471 695.068 154.58C695.977 155.689 697.271 156.244 698.95 156.244C700.081 156.244 701.063 155.985 701.898 155.467C702.732 154.95 703.387 154.205 703.862 153.233L706.572 154.168C705.906 155.679 704.903 156.851 703.561 157.686C702.23 158.51 700.736 158.922 699.077 158.922ZM692.755 150.682V148.416H705.399V150.682H692.755ZM719.939 158.446C718.925 158.647 717.922 158.726 716.929 158.684C715.946 158.652 715.07 158.457 714.299 158.098C713.527 157.728 712.941 157.158 712.54 156.386C712.202 155.71 712.017 155.029 711.985 154.342C711.964 153.645 711.953 152.858 711.953 151.982V136.58H714.774V151.855C714.774 152.552 714.779 153.149 714.79 153.645C714.811 154.142 714.922 154.57 715.122 154.929C715.503 155.605 716.105 156.001 716.929 156.117C717.763 156.233 718.767 156.202 719.939 156.022V158.446ZM708.483 143.663V141.334H719.939V143.663H708.483ZM725.326 166.052L728.638 157.052L728.685 159.714L721.206 141.334H724.17L730.032 156.117H729.018L734.516 141.334H737.384L728.067 166.052H725.326Z" fill="white"/>
</svg>
