<svg width="939" height="186" viewBox="0 0 939 186" fill="none" xmlns="http://www.w3.org/2000/svg">
<circle cx="93.2879" cy="92.5332" r="92.5332" fill="#355075"/>
<path d="M142.5 47.8845H64.8098C53.3593 47.8845 44.0767 57.1671 44.0767 68.6176C44.0767 79.7923 53.1356 88.8511 64.3102 88.8511H141.864C142.215 88.8511 142.5 88.5665 142.5 88.2155V47.8845Z" fill="white"/>
<path d="M44.0767 96.2158L121.766 96.2158C133.217 96.2158 142.499 105.498 142.499 116.949C142.499 128.124 133.441 137.182 122.266 137.182L44.7122 137.182C44.3612 137.182 44.0767 136.898 44.0767 136.547L44.0767 96.2158Z" fill="white"/>
<path d="M269.704 149.347C261.242 149.347 253.035 148.225 245.083 145.982C237.233 143.638 230.912 140.63 226.12 136.96L234.531 118.303C239.119 121.667 244.573 124.369 250.894 126.408C257.215 128.447 263.536 129.466 269.857 129.466C276.891 129.466 282.091 128.447 285.455 126.408C288.82 124.267 290.502 121.463 290.502 117.997C290.502 115.448 289.482 113.358 287.443 111.727C285.506 109.994 282.958 108.618 279.797 107.598C276.739 106.579 272.559 105.457 267.257 104.234C259.101 102.297 252.423 100.36 247.224 98.4225C242.024 96.4854 237.539 93.3759 233.766 89.094C230.096 84.8121 228.261 79.1028 228.261 71.9663C228.261 65.7473 229.943 60.14 233.308 55.1444C236.672 50.0469 241.719 46.0199 248.447 43.0633C255.278 40.1067 263.587 38.6285 273.374 38.6285C280.205 38.6285 286.883 39.4441 293.407 41.0753C299.932 42.7065 305.642 45.0513 310.535 48.1099L302.889 66.9198C293 61.3125 283.11 58.5088 273.221 58.5088C266.289 58.5088 261.14 59.6303 257.776 61.8732C254.513 64.1161 252.882 67.0727 252.882 70.7429C252.882 74.4131 254.768 77.1658 258.54 79.0009C262.414 80.7341 268.277 82.4672 276.127 84.2004C284.283 86.1374 290.961 88.0745 296.16 90.0116C301.36 91.9486 305.794 95.0071 309.465 99.1871C313.237 103.367 315.123 109.025 315.123 116.162C315.123 122.279 313.39 127.886 309.923 132.984C306.559 137.979 301.462 141.955 294.631 144.912C287.8 147.869 279.491 149.347 269.704 149.347ZM375.788 64.0142C385.983 64.0142 394.19 67.0727 400.409 73.1897C406.73 79.3067 409.89 88.3804 409.89 100.411V147.512H386.034V104.081C386.034 97.5559 384.607 92.7133 381.752 89.5528C378.897 86.2904 374.768 84.6592 369.365 84.6592C363.35 84.6592 358.558 86.5452 354.99 90.3174C351.422 93.9876 349.638 99.493 349.638 106.833V147.512H325.781V34.0407H349.638V73.8014C352.798 70.6409 356.621 68.2451 361.107 66.6139C365.593 64.8807 370.487 64.0142 375.788 64.0142ZM460.112 64.0142C472.856 64.0142 482.643 67.0727 489.474 73.1897C496.305 79.2048 499.72 88.3294 499.72 100.563V147.512H477.393V137.266C472.907 144.912 464.547 148.735 452.313 148.735C445.992 148.735 440.487 147.665 435.797 145.524C431.209 143.383 427.692 140.426 425.245 136.654C422.798 132.882 421.575 128.6 421.575 123.808C421.575 116.162 424.43 110.147 430.139 105.763C435.95 101.379 444.871 99.1871 456.901 99.1871H475.864C475.864 93.9876 474.283 90.0116 471.123 87.2589C467.962 84.4043 463.222 82.977 456.901 82.977C452.517 82.977 448.184 83.6906 443.902 85.1179C439.722 86.4433 436.154 88.2784 433.197 90.6233L424.633 73.9543C429.119 70.7939 434.472 68.3471 440.691 66.6139C447.012 64.8807 453.485 64.0142 460.112 64.0142ZM458.277 132.678C462.355 132.678 465.974 131.76 469.135 129.925C472.295 127.988 474.538 125.185 475.864 121.514V113.103H459.501C449.713 113.103 444.82 116.315 444.82 122.738C444.82 125.796 445.992 128.243 448.337 130.078C450.784 131.811 454.097 132.678 458.277 132.678ZM539.509 76.0953C542.364 72.1192 546.187 69.1117 550.979 67.0727C555.873 65.0337 561.48 64.0142 567.801 64.0142V86.0355C565.15 85.8316 563.366 85.7296 562.448 85.7296C555.618 85.7296 550.265 87.6667 546.391 91.5408C542.517 95.313 540.58 101.022 540.58 108.669V147.512H516.724V65.2376H539.509V76.0953ZM657.243 106.68C657.243 106.986 657.09 109.127 656.785 113.103H594.544C595.665 118.201 598.316 122.228 602.496 125.185C606.676 128.141 611.875 129.619 618.094 129.619C622.376 129.619 626.148 129.008 629.411 127.784C632.775 126.459 635.885 124.42 638.739 121.667L651.432 135.431C643.684 144.3 632.367 148.735 617.483 148.735C608.205 148.735 599.998 146.951 592.862 143.383C585.725 139.712 580.22 134.666 576.346 128.243C572.471 121.82 570.534 114.531 570.534 106.375C570.534 98.3205 572.42 91.082 576.193 84.6592C580.067 78.1343 585.317 73.0878 591.944 69.5195C598.673 65.8493 606.166 64.0142 614.424 64.0142C622.478 64.0142 629.768 65.7473 636.292 69.2136C642.817 72.68 647.915 77.6755 651.585 84.2004C655.357 90.6233 657.243 98.1166 657.243 106.68ZM614.577 82.0594C609.174 82.0594 604.637 83.5887 600.967 86.6472C597.296 89.7057 595.053 93.8857 594.238 99.1871H634.763C633.948 93.9876 631.705 89.8586 628.035 86.8001C624.364 83.6396 619.878 82.0594 614.577 82.0594Z" fill="#252C39"/>
<path d="M704.782 148.735C696.728 148.735 688.929 147.512 681.384 145.065C673.942 142.516 668.08 139.254 663.798 135.278L669.456 123.349C673.534 127.02 678.733 130.027 685.054 132.372C691.477 134.615 698.053 135.736 704.782 135.736C713.652 135.736 720.278 134.258 724.662 131.302C729.046 128.243 731.238 124.216 731.238 119.22C731.238 115.55 730.015 112.594 727.568 110.351C725.223 108.006 722.266 106.222 718.698 104.998C715.232 103.775 710.287 102.399 703.864 100.869C695.81 98.9322 689.285 96.9952 684.29 95.0581C679.396 93.1211 675.165 90.1645 671.597 86.1884C668.131 82.1104 666.397 76.656 666.397 69.8253C666.397 64.1161 667.876 58.9676 670.832 54.3798C673.891 49.792 678.479 46.1218 684.596 43.3691C690.713 40.6165 698.308 39.2402 707.382 39.2402C713.703 39.2402 719.921 40.0558 726.039 41.687C732.156 43.3182 737.406 45.663 741.79 48.7216L736.743 60.9556C732.258 58.101 727.466 55.9601 722.368 54.5327C717.271 53.0035 712.275 52.2389 707.382 52.2389C698.716 52.2389 692.191 53.8191 687.807 56.9796C683.525 60.14 681.384 64.2181 681.384 69.2136C681.384 72.8839 682.608 75.8914 685.054 78.2363C687.501 80.4792 690.509 82.2633 694.077 83.5887C697.747 84.8121 702.692 86.1374 708.911 87.5647C716.965 89.5018 723.439 91.4389 728.332 93.3759C733.226 95.313 737.406 98.2696 740.872 102.246C744.441 106.222 746.225 111.574 746.225 118.303C746.225 123.91 744.695 129.059 741.637 133.748C738.578 138.336 733.94 142.006 727.721 144.759C721.502 147.41 713.855 148.735 704.782 148.735ZM796.552 148.429C788.498 148.429 781.259 146.645 774.836 143.077C768.413 139.509 763.367 134.615 759.697 128.396C756.128 122.075 754.344 114.938 754.344 106.986C754.344 99.0342 756.128 91.9486 759.697 85.7296C763.367 79.4087 768.413 74.5151 774.836 71.0488C781.259 67.4805 788.498 65.6963 796.552 65.6963C804.606 65.6963 811.793 67.4805 818.114 71.0488C824.537 74.5151 829.533 79.4087 833.101 85.7296C836.771 91.9486 838.606 99.0342 838.606 106.986C838.606 114.938 836.771 122.075 833.101 128.396C829.533 134.615 824.537 139.509 818.114 143.077C811.793 146.645 804.606 148.429 796.552 148.429ZM796.552 135.583C801.751 135.583 806.39 134.411 810.468 132.066C814.648 129.619 817.91 126.255 820.255 121.973C822.6 117.589 823.773 112.594 823.773 106.986C823.773 101.379 822.6 96.4345 820.255 92.1525C817.91 87.7686 814.648 84.4043 810.468 82.0594C806.39 79.7145 801.751 78.5421 796.552 78.5421C791.352 78.5421 786.663 79.7145 782.483 82.0594C778.405 84.4043 775.142 87.7686 772.695 92.1525C770.35 96.4345 769.178 101.379 769.178 106.986C769.178 112.594 770.35 117.589 772.695 121.973C775.142 126.255 778.405 129.619 782.483 132.066C786.663 134.411 791.352 135.583 796.552 135.583ZM889.648 148.429C881.39 148.429 873.998 146.645 867.474 143.077C861.051 139.509 856.004 134.615 852.334 128.396C848.664 122.075 846.829 114.938 846.829 106.986C846.829 99.0342 848.664 91.9486 852.334 85.7296C856.004 79.4087 861.051 74.5151 867.474 71.0488C873.998 67.4805 881.39 65.6963 889.648 65.6963C896.988 65.6963 903.513 67.1746 909.222 70.1312C915.033 73.0878 919.519 77.3697 922.68 82.977L911.516 90.1645C908.967 86.2904 905.807 83.3848 902.035 81.4477C898.263 79.5106 894.083 78.5421 889.495 78.5421C884.193 78.5421 879.402 79.7145 875.12 82.0594C870.94 84.4043 867.626 87.7686 865.18 92.1525C862.835 96.4345 861.662 101.379 861.662 106.986C861.662 112.696 862.835 117.742 865.18 122.126C867.626 126.408 870.94 129.721 875.12 132.066C879.402 134.411 884.193 135.583 889.495 135.583C894.083 135.583 898.263 134.615 902.035 132.678C905.807 130.741 908.967 127.835 911.516 123.961L922.68 130.996C919.519 136.603 915.033 140.936 909.222 143.994C903.513 146.951 896.988 148.429 889.648 148.429Z" fill="#355075"/>
</svg>
